<svg xmlns="http://www.w3.org/2000/svg" width="130" height="131" fill="none" xmlns:v="https://vecta.io/nano"><path fill="#e5e5e5" d="M0 0h130v131H0z"/><g clip-path="url(#A)"><path fill="#000" d="M-859-2599H763V8380H-859z"/><rect x="-40" y="-17.003" width="209" height="202" rx="10" fill="#e7eaff" fill-opacity=".1"/><g opacity=".5"><g fill-rule="evenodd" fill="#fff"><path opacity=".33" d="M67 53.745h-6v-2h6a2 2 0 0 1 2 2v11.5h6v2h-6v11.5a2 2 0 0 1-2 2h-6v-2h6v-25zm-42 0h6v-2h-6a2 2 0 0 0-2 2v25a2 2 0 0 0 2 2h6v-2h-6v-25z"/></g><g fill="#f4f6fb"><path d="M73 62.745a1 1 0 0 1 1-1h32a1 1 0 0 1 1 1v8a1 1 0 0 1-1 1H74a1 1 0 0 1-1-1v-8zm-44-14a1 1 0 0 1 1-1h32a1 1 0 0 1 1 1v8a1 1 0 0 1-1 1H30a1 1 0 0 1-1-1v-8zm0 27a1 1 0 0 1 1-1h32a1 1 0 0 1 1 1v8a1 1 0 0 1-1 1H30a1 1 0 0 1-1-1v-8z"/></g></g></g><defs><clipPath id="A"><path fill="#fff" transform="translate(-859 -2599)" d="M0 0h1622v10979H0z"/></clipPath></defs></svg>