<svg xmlns="http://www.w3.org/2000/svg" width="150" height="167" fill="none" xmlns:v="https://vecta.io/nano"><path fill-rule="evenodd" d="M32.596 71.352C11.911 59.196 6.088 40.011 6.088 19.673h4.484c0 19.422 5.477 36.746 24.293 47.804 9.524 5.597 22.599 9.675 40.388 11.503 22.188 2.28 39.46 7.443 51.164 18.181 11.793 10.82 17.543 26.922 17.543 50.126h-4.484c0-22.481-5.555-37.149-16.087-46.812-10.621-9.744-26.696-14.775-48.594-17.026-18.211-1.871-31.959-6.079-42.199-12.097z" fill="url(#A)"/><path d="M133.333 151.198a.9.9 0 0 1 .897-.898h14.873c.496 0 .897.402.897.898v14.903a.9.9 0 0 1-.897.899H134.23a.9.9 0 0 1-.897-.899v-14.903z" fill="#cd3e58"/><path d="M0 .899A.9.9 0 0 1 .897 0H15.77a.9.9 0 0 1 .897.899v14.903a.9.9 0 0 1-.897.899H.897A.9.9 0 0 1 0 15.801V.899z" fill="#e9c136"/><defs><linearGradient id="A" x1="75.024" y1="19.673" x2="75.024" y2="147.287" gradientUnits="userSpaceOnUse"><stop stop-color="#e9c136"/><stop offset="1" stop-color="#cd3e58"/></linearGradient></defs></svg>