<svg xmlns="http://www.w3.org/2000/svg" width="130" height="131" fill="none" xmlns:v="https://vecta.io/nano"><path fill="#e5e5e5" d="M0 0h130v131H0z"/><g clip-path="url(#A)"><path fill="#000" d="M-201-2811h1622V8168H-201z"/><rect x="-40" y="-17.003" width="209" height="202" rx="10" fill="#e7eaff" fill-opacity=".1"/><g opacity=".5"><g fill-rule="evenodd" fill="#fff"><path opacity=".33" d="M85 59.745h-6v-2h6a2 2 0 0 1 2 2v5.5h6v2h-6v5.5a2 2 0 0 1-2 2h-6v-2h6v-13zm-46-12h-5v-2h5a2 2 0 0 1 2 2v17.5h5v2h-5v17.5a2 2 0 0 1-2 2h-5v-2h5v-37z"/><path d="M12 40.245a4.5 4.5 0 1 1 9 0c0 1.506-.739 2.839-1.875 3.655a4.48 4.48 0 0 1-5.25 0C12.739 43.084 12 41.751 12 40.245z"/><path opacity=".33" d="M22.868 39.345c-.873 0-1.708.151-2.483.427l-.671-1.884a9.37 9.37 0 0 1 6.918.241l-.801 1.832a7.37 7.37 0 0 0-2.962-.617zm-6.833 4.554a7.37 7.37 0 0 0 0 5.692l-1.846.77c-.465-1.114-.721-2.336-.721-3.616a9.37 9.37 0 0 1 .721-3.616l1.846.77zm14.233 2.846a7.38 7.38 0 0 0-.509-2.704l1.861-.731c.418 1.065.648 2.224.648 3.435 0 1.279-.256 2.501-.721 3.616l-1.846-.77a7.37 7.37 0 0 0 .567-2.846zm-7.4 7.4c1.001 0 1.952-.198 2.82-.556l.763 1.849a9.38 9.38 0 0 1-3.583.707c-1.154 0-2.262-.209-3.287-.591l.699-1.874a7.38 7.38 0 0 0 2.587.465zm-1.184-7.22l-3.603-3.603 1.414-1.414 3.603 3.603 3.445-3.445 1.414 1.414-3.445 3.444 3.603 3.603-1.414 1.414-3.603-3.603-3.407 3.407-1.414-1.414 3.407-3.407z"/><path d="M12 53.245a4.5 4.5 0 1 1 9 0 4.49 4.49 0 0 1-1.875 3.655 4.48 4.48 0 0 1-5.25 0A4.49 4.49 0 0 1 12 53.245zm13-13a4.5 4.5 0 1 1 9 0 4.49 4.49 0 0 1-1.875 3.655 4.48 4.48 0 0 1-5.25 0A4.49 4.49 0 0 1 25 40.245zm0 13a4.5 4.5 0 1 1 9 0 4.49 4.49 0 0 1-1.875 3.655 4.48 4.48 0 0 1-5.25 0A4.49 4.49 0 0 1 25 53.245z"/><path opacity=".33" d="M22.868 77.345c-.873 0-1.708.151-2.483.427l-.671-1.884a9.37 9.37 0 0 1 3.154-.542 9.37 9.37 0 0 1 3.764.784l-.801 1.832a7.37 7.37 0 0 0-2.962-.616zm-6.833 4.554a7.37 7.37 0 0 0 0 5.692l-1.846.77c-.465-1.114-.721-2.336-.721-3.616a9.37 9.37 0 0 1 .721-3.616l1.846.77zm14.233 2.846a7.38 7.38 0 0 0-.509-2.704l1.861-.731c.418 1.065.648 2.224.648 3.435 0 1.279-.256 2.501-.721 3.616l-1.846-.77a7.37 7.37 0 0 0 .567-2.846zm-7.4 7.4c1.001 0 1.952-.198 2.82-.556l.763 1.849a9.38 9.38 0 0 1-3.583.707c-1.154 0-2.262-.209-3.287-.591l.699-1.874a7.38 7.38 0 0 0 2.587.465zm-1.184-7.22l-3.603-3.603 1.414-1.414 3.603 3.603 3.445-3.444 1.414 1.414-3.445 3.445 3.603 3.603-1.414 1.414-3.603-3.603-3.407 3.407-1.414-1.414 3.407-3.407z"/><path d="M12 78.245a4.5 4.5 0 1 1 9 0c0 1.506-.739 2.839-1.875 3.656a4.48 4.48 0 0 1-5.25 0C12.739 81.084 12 79.751 12 78.245zm0 13a4.5 4.5 0 1 1 9 0c0 1.506-.739 2.839-1.875 3.656a4.48 4.48 0 0 1-5.25 0C12.739 94.084 12 92.751 12 91.245zm13-13a4.5 4.5 0 1 1 9 0c0 1.506-.739 2.839-1.875 3.656a4.48 4.48 0 0 1-5.25 0C25.739 81.084 25 79.751 25 78.245zm0 13a4.5 4.5 0 1 1 9 0c0 1.506-.739 2.839-1.875 3.656a4.48 4.48 0 0 1-5.25 0C25.739 94.084 25 92.751 25 91.245z"/></g><g fill="#f4f6fb"><path d="M91 62.745a1 1 0 0 1 1-1h32a1 1 0 0 1 1 1v8a1 1 0 0 1-1 1H92a1 1 0 0 1-1-1v-8zm-44-8a1 1 0 0 1 1-1h32a1 1 0 0 1 1 1v8a1 1 0 0 1-1 1H48a1 1 0 0 1-1-1v-8zm0 15a1 1 0 0 1 1-1h32a1 1 0 0 1 1 1v8a1 1 0 0 1-1 1H48a1 1 0 0 1-1-1v-8z"/></g></g></g><defs><clipPath id="A"><path fill="#fff" transform="translate(-201 -2811)" d="M0 0h1622v10979H0z"/></clipPath></defs></svg>