<svg xmlns="http://www.w3.org/2000/svg" width="47" height="29" fill="none" opacity=".5" xmlns:v="https://vecta.io/nano"><path fill-rule="evenodd" d="M12 26.005c6.627 0 12-5.373 12-12s-5.373-12-12-12-12 5.373-12 12 5.373 12 12 12zm.94-17.591a6.03 6.03 0 0 1 1.207.344 5.84 5.84 0 0 1 2.848 2.422l-1.769.99c-.424-.712-1.078-1.268-1.861-1.582a3.96 3.96 0 0 0-2.469-.157c-.819.213-1.542.681-2.058 1.333a3.66 3.66 0 0 0 0 4.545 3.86 3.86 0 0 0 2.058 1.333c.819.213 1.687.157 2.47-.157s1.437-.871 1.861-1.582l1.769.99a5.84 5.84 0 0 1-2.848 2.422c-.391.157-.796.272-1.207.344v2.347h-2.115v-2.35c-.153-.027-.306-.061-.457-.1-1.253-.326-2.36-1.043-3.149-2.041S6 15.294 6 14.036s.428-2.48 1.218-3.478 1.897-1.715 3.149-2.041a6.06 6.06 0 0 1 .457-.1V6.005h2.115v2.409z" fill="#fff"/><circle cx="33" cy="14.005" r="14" fill="#131313"/><path fill-rule="evenodd" d="M21 14.166c0-6.627 5.373-12 12-12s12 5.373 12 12c0 4.015-1.972 7.57-5 9.748-1.97 1.417-4.388 2.252-7 2.252s-5.03-.835-7-2.252c-3.028-2.178-5-5.733-5-9.748zm5.371 6.088c1.645 1.79 4.006 2.912 6.629 2.912s4.984-1.122 6.629-2.912a7 7 0 0 0-8.73-4.427 7 7 0 0 0-4.528 4.427zM33 5.166a4 4 0 0 0-4 4v1a4 4 0 1 0 8 0v-1a4 4 0 0 0-4-4z" fill="#fff"/></svg>